<?xml version="1.0" encoding="UTF-8" standalone="no"?>
<!-- Created with Inkscape (http://www.inkscape.org/) -->

<svg
   xmlns:dc="http://purl.org/dc/elements/1.1/"
   xmlns:cc="http://creativecommons.org/ns#"
   xmlns:rdf="http://www.w3.org/1999/02/22-rdf-syntax-ns#"
   xmlns:svg="http://www.w3.org/2000/svg"
   xmlns="http://www.w3.org/2000/svg"
   xmlns:sodipodi="http://sodipodi.sourceforge.net/DTD/sodipodi-0.dtd"
   xmlns:inkscape="http://www.inkscape.org/namespaces/inkscape"
   width="512"
   height="512"
   viewBox="0 0 135.46666 135.46666"
   version="1.1"
   id="svg8"
   inkscape:version="0.92.3 (2405546, 2018-03-11)"
   sodipodi:docname="delete1.svg">
  <defs
     id="defs2" />
  <sodipodi:namedview
     id="base"
     pagecolor="#ffffff"
     bordercolor="#606060"
     borderopacity="1.0"
     inkscape:pageopacity="0.0"
     inkscape:pageshadow="2"
     inkscape:zoom="0.92441549"
     inkscape:cx="182.25303"
     inkscape:cy="252.67979"
     inkscape:document-units="mm"
     inkscape:current-layer="layer1"
     showgrid="false"
     units="px"
     inkscape:window-width="1366"
     inkscape:window-height="705"
     inkscape:window-x="-8"
     inkscape:window-y="-8"
     inkscape:window-maximized="1" />
  <metadata
     id="metadata5">
    <rdf:RDF>
      <cc:Work
         rdf:about="">
        <dc:format>image/svg+xml</dc:format>
        <dc:type
           rdf:resource="http://purl.org/dc/dcmitype/StillImage" />
        <dc:title />
      </cc:Work>
    </rdf:RDF>
  </metadata>
  <g
     inkscape:label="Capa 1"
     inkscape:groupmode="layer"
     id="layer1"
     transform="translate(0,-161.53336)">
    <g
       id="g952"
       transform="matrix(0.26458333,0,0,0.26458333,83.477896,122.89847)" />
    <g
       id="g954"
       transform="matrix(0.26458333,0,0,0.26458333,83.477896,122.89847)" />
    <g
       id="g956"
       transform="matrix(0.26458333,0,0,0.26458333,83.477896,122.89847)" />
    <g
       id="g958"
       transform="matrix(0.26458333,0,0,0.26458333,83.477896,122.89847)" />
    <g
       id="g960"
       transform="matrix(0.26458333,0,0,0.26458333,83.477896,122.89847)" />
    <g
       id="g962"
       transform="matrix(0.26458333,0,0,0.26458333,83.477896,122.89847)" />
    <g
       id="g964"
       transform="matrix(0.26458333,0,0,0.26458333,83.477896,122.89847)" />
    <g
       id="g966"
       transform="matrix(0.26458333,0,0,0.26458333,83.477896,122.89847)" />
    <g
       id="g968"
       transform="matrix(0.26458333,0,0,0.26458333,83.477896,122.89847)" />
    <g
       id="g970"
       transform="matrix(0.26458333,0,0,0.26458333,83.477896,122.89847)" />
    <g
       id="g972"
       transform="matrix(0.26458333,0,0,0.26458333,83.477896,122.89847)" />
    <g
       id="g974"
       transform="matrix(0.26458333,0,0,0.26458333,83.477896,122.89847)" />
    <g
       id="g976"
       transform="matrix(0.26458333,0,0,0.26458333,83.477896,122.89847)" />
    <g
       id="g978"
       transform="matrix(0.26458333,0,0,0.26458333,83.477896,122.89847)" />
    <g
       id="g980"
       transform="matrix(0.26458333,0,0,0.26458333,83.477896,122.89847)" />
    <path
       id="path850"
       style="fill:#606060;stroke-width:2.31267238"
       d="m 58.922065,163.56574 c -1.345158,0.17656 -2.614568,0.74909 -3.663369,1.66565 -1.396082,1.22327 -2.231257,2.9141 -2.35244,4.75736 l -0.457319,6.9229 -21.787574,-1.4418 c -4.52537,-0.29631 -8.453952,3.13944 -8.750519,7.66246 l -0.6775,10.259 92.302576,6.08343 0.67864,-10.24991 c 0.14649,-2.19307 -0.56807,-4.31019 -2.01663,-5.96097 -1.4486,-1.65315 -3.45745,-2.64515 -5.65026,-2.78928 l -21.791972,-1.43324 0.457582,-6.92735 c 0.121147,-1.84326 -0.486077,-3.62499 -1.711844,-5.02326 -1.225689,-1.39835 -2.912166,-2.2359 -4.757735,-2.35696 l -18.456024,-1.21916 c -0.460641,-0.035 -0.915792,-0.009 -1.364476,0.0437 z m 1.062568,4.57302 18.460447,1.21069 c 0.610632,0.0437 1.174747,0.32515 1.584935,0.79366 0.410119,0.46589 0.608011,1.06192 0.567279,1.6702 l -0.452949,6.92237 -23.075926,-1.5244 0.452949,-6.92246 c 0.04108,-0.61011 0.320526,-1.17424 0.788683,-1.58453 0.466148,-0.40733 1.063958,-0.61099 1.674634,-0.56816 z M 29.622291,180.1155 c 0.237138,-0.035 0.483192,-0.0437 0.73178,-0.035 l 21.79198,1.43332 20.040155,1.32091 34.058624,2.24647 c 0.96018,0.0612 1.83465,0.49473 2.46779,1.21734 0.63563,0.72461 0.94984,1.65568 0.88631,2.61577 l -0.37201,5.63477 -83.072711,-5.47997 0.371484,-5.63904 c 0.113194,-1.73121 1.435058,-3.0939 3.09679,-3.32693 z"
       inkscape:connector-curvature="0"
       sodipodi:nodetypes="ccccccccccccccccccccccccccccccccccccccc" />
    <path
       style="fill:none;stroke:#606060;stroke-width:4.50508595;stroke-linecap:round;stroke-linejoin:miter;stroke-miterlimit:4;stroke-dasharray:none;stroke-opacity:1"
       d="M 52.814398,282.61314 V 215.41876"
       id="path1057"
       inkscape:connector-curvature="0" />
    <path
       style="fill:none;stroke:#606060;stroke-width:4.50508595;stroke-linecap:round;stroke-linejoin:miter;stroke-miterlimit:4;stroke-dasharray:none;stroke-opacity:1"
       d="M 81.543234,282.61314 V 215.41876"
       id="path1057-5"
       inkscape:connector-curvature="0" />
    <path
       id="path850-9"
       style="fill:#606060;stroke-width:2.31267238"
       d="m 25.643798,200.21517 v 86.19218 c 0,4.75718 3.867991,8.62735 8.622842,8.62735 h 66.006 c 4.75717,0 8.62736,-3.87235 8.62736,-8.62735 v -86.19672 z m 4.629858,4.62083 h 25.439387 0.16258 22.964095 2.312678 16.188702 6.933502 v 81.57135 c 0,2.20627 -1.7935,3.99752 -3.99747,3.99752 H 34.271107 c -2.206294,0 -3.997504,-1.79125 -3.997504,-3.99752 z"
       inkscape:connector-curvature="0"
       sodipodi:nodetypes="cssscccccccccsssscc" />
  </g>
</svg>
